# Blender 3.6.23
# www.blender.org
mtllib flowerpot.mtl
o Pot
v 0.125000 0.500000 -0.125000
v 0.125000 -0.250000 0.125000
v 0.125000 0.500000 0.125000
v -0.125000 0.500000 -0.125000
v -0.125000 0.500000 0.125000
v 0.353553 0.500000 0.353554
v 0.353553 -0.250000 0.353554
v -0.353553 0.500000 -0.353554
v -0.353553 -0.250000 -0.353554
v -0.125000 -0.250000 -0.125000
v -0.125000 -0.125000 -0.125000
v -0.187500 -0.500000 -0.187500
v -0.187500 -0.125000 -0.187500
v 0.125000 -0.125000 0.125000
v 0.187500 -0.500000 0.187500
v -0.125000 -0.250000 0.125000
v -0.125000 -0.125000 0.125000
v -0.187500 -0.500000 0.187500
v -0.187500 -0.125000 0.187500
v 0.125000 -0.250000 -0.125000
v 0.125000 -0.125000 -0.125000
v 0.187500 -0.500000 -0.187500
v 0.187500 -0.125000 -0.187500
v 0.187500 -0.125000 0.187500
v 0.353554 0.500000 -0.353553
v 0.353553 -0.250000 -0.353553
v -0.353553 0.500000 0.353553
v -0.353554 -0.250000 0.353553
vn 1.0000 -0.0000 -0.0000
vn -0.0000 -0.0000 1.0000
vn -1.0000 -0.0000 -0.0000
vn -0.0000 -0.0000 -1.0000
vn -0.0000 1.0000 -0.0000
vn 0.7071 -0.0000 -0.7071
vn -0.0000 -1.0000 -0.0000
vn -0.7071 -0.0000 -0.7071
vt 0.625000 0.500000
vt 0.625000 0.875000
vt 0.500000 0.875000
vt 0.500000 0.500000
vt 1.000000 0.500000
vt 1.000000 0.875000
vt 0.875000 0.875000
vt 0.875000 0.500000
vt 0.875000 0.500000
vt 0.875000 0.875000
vt 0.750000 0.875000
vt 0.750000 0.500000
vt 0.750000 1.000000
vt 0.625000 1.000000
vt 0.000000 1.000000
vt 0.000000 0.500000
vt 0.500000 1.000000
vt 0.375000 0.062500
vt 0.375000 0.250000
vt 0.187500 0.250000
vt 0.187500 0.062500
vt 0.500000 0.562500
vt 0.500000 0.625000
vt 0.375000 0.625000
vt 0.375000 0.562500
vt 0.343750 0.281250
vt 0.218750 0.281250
vt 0.750000 0.062500
vt 0.750000 0.250000
vt 0.562500 0.250000
vt 0.562500 0.062500
vt 0.250000 0.562500
vt 0.250000 0.625000
vt 0.125000 0.625000
vt 0.125000 0.562500
vt 0.375000 0.437500
vt 0.187500 0.437500
vt 0.218750 0.406250
vt 0.343750 0.406250
vt 0.187500 0.062500
vt 0.187500 0.250000
vt 0.000000 0.250000
vt 0.000000 0.062500
vt 0.250000 0.625000
vt 0.250000 0.562500
vt 0.187500 0.437500
vt 0.187500 0.250000
vt 0.125000 0.562500
vt 0.125000 0.625000
vt -0.000000 0.625000
vt 0.000000 0.562500
vt 0.562500 0.437500
s 0
usemtl Pot
f 20/1/1 1/2/1 3/3/1 2/4/1
f 2/5/2 3/6/2 5/7/2 16/8/2
f 16/9/3 5/10/3 4/11/3 10/12/3
f 10/12/4 4/11/4 1/2/4 20/1/4
f 5/13/5 3/14/5 1/2/5 4/11/5
f 6/15/6 7/16/6 9/4/6 8/17/6
f 12/18/4 13/19/4 23/20/4 22/21/4
f 20/22/2 21/23/2 11/24/2 10/25/2
f 23/20/5 13/19/5 11/26/5 21/27/5
f 15/28/2 24/29/2 19/30/2 18/31/2
f 16/32/4 17/33/4 14/34/4 2/35/4
f 19/36/5 24/37/5 14/38/5 17/39/5
f 22/40/1 23/41/1 24/42/1 15/43/1
f 2/25/3 14/24/3 21/44/3 20/45/3
f 24/46/5 23/47/5 21/27/5 14/38/5
f 18/31/3 19/30/3 13/19/3 12/18/3
f 10/48/1 11/49/1 17/50/1 16/51/1
f 13/19/5 19/36/5 17/39/5 11/26/5
f 15/19/7 18/30/7 12/52/7 22/36/7
f 20/27/5 10/26/5 16/39/5 2/38/5
f 25/15/8 26/16/8 28/4/8 27/17/8
