# Blender 3.6.23
# www.blender.org
mtllib mcl_lush_caves_flowerpot.mtl
o Pot
v -0.125000 -0.250000 -0.125000
v 0.125000 -0.250000 0.125000
v 0.125000 -0.125000 0.125000
v 0.187500 -0.500000 0.187500
v 0.187500 -0.125000 0.187500
v -0.125000 -0.125000 -0.125000
v -0.187500 -0.500000 -0.187500
v 0.125000 -0.250000 -0.125000
v 0.125000 -0.125000 -0.125000
v 0.187500 -0.500000 -0.187500
v 0.187500 -0.125000 -0.187500
v -0.125000 -0.250000 0.125000
v -0.125000 -0.125000 0.125000
v -0.187500 -0.500000 0.187500
v -0.187500 -0.125000 0.187500
v -0.187500 -0.125000 -0.187500
v 0.088388 -0.000000 0.088388
v -0.088388 -0.000000 -0.088388
v 0.088388 -0.250000 0.088388
v -0.088388 -0.250000 -0.088388
v 0.088388 -0.000000 -0.088388
v -0.088388 -0.250000 0.088388
v 0.088388 -0.250000 -0.088388
v 0.250000 0.000000 -0.250000
v 0.250000 0.500000 -0.250000
v 0.250000 0.000000 0.250000
v 0.250000 0.500000 0.250000
v -0.250000 0.000000 -0.250000
v -0.250000 0.500000 -0.250000
v -0.250000 0.000000 0.250000
v -0.250000 0.500000 0.250000
v 0.088388 0.250000 -0.088388
v -0.088388 -0.000000 0.088388
v -0.088388 0.250000 0.088388
v 0.088388 0.250000 0.088388
v -0.088388 0.250000 -0.088388
vn -0.0000 -0.0000 1.0000
vn -0.0000 -0.0000 -1.0000
vn -0.0000 1.0000 -0.0000
vn -1.0000 -0.0000 -0.0000
vn 1.0000 -0.0000 -0.0000
vn -0.0000 -1.0000 -0.0000
vn -0.7071 -0.0000 0.7071
vn -0.7071 -0.0000 -0.7071
vn 0.7071 -0.0000 0.7071
vt 0.375000 0.062500
vt 0.375000 0.250000
vt 0.187500 0.250000
vt 0.187500 0.062500
vt 0.500000 0.562500
vt 0.500000 0.625000
vt 0.375000 0.625000
vt 0.375000 0.562500
vt 0.343750 0.281250
vt 0.218750 0.281250
vt 0.750000 0.062500
vt 0.750000 0.250000
vt 0.562500 0.250000
vt 0.562500 0.062500
vt 0.250000 0.562500
vt 0.250000 0.625000
vt 0.125000 0.625000
vt 0.125000 0.562500
vt 0.375000 0.437500
vt 0.187500 0.437500
vt 0.218750 0.406250
vt 0.343750 0.406250
vt 0.187500 0.062500
vt 0.187500 0.250000
vt 0.000000 0.250000
vt 0.000000 0.062500
vt 0.250000 0.625000
vt 0.250000 0.562500
vt 0.187500 0.437500
vt 0.187500 0.250000
vt 0.125000 0.562500
vt 0.125000 0.625000
vt -0.000000 0.625000
vt 0.000000 0.562500
vt 0.562500 0.437500
vt 0.312500 0.625000
vt 0.187500 0.625000
vt 0.187500 0.500000
vt 0.312500 0.500000
vt 0.312500 0.625000
vt 0.187500 0.625000
vt 0.187500 0.500000
vt 0.312500 0.500000
vt 0.375000 0.875000
vt 0.125000 0.875000
vt 0.125000 0.625000
vt 0.875000 0.875000
vt 0.625000 0.875000
vt 0.625000 0.625000
vt 0.875000 0.625000
vt 0.312500 0.625000
vt 0.187500 0.625000
s 0
usemtl Pot
f 4/1/1 5/2/1 15/3/1 14/4/1
f 12/5/2 13/6/2 3/7/2 2/8/2
f 15/3/3 5/2/3 3/9/3 13/10/3
f 7/11/2 16/12/2 11/13/2 10/14/2
f 8/15/1 9/16/1 6/17/1 1/18/1
f 11/19/3 16/20/3 6/21/3 9/22/3
f 14/23/4 15/24/4 16/25/4 7/26/4
f 1/8/5 6/7/5 13/27/5 12/28/5
f 16/29/3 15/30/3 13/10/3 6/21/3
f 10/14/5 11/13/5 5/2/5 4/1/5
f 2/31/4 3/32/4 9/33/4 8/34/4
f 5/2/3 11/19/3 9/22/3 3/9/3
f 7/2/6 10/13/6 4/35/6 14/19/6
f 12/10/3 2/9/3 8/22/3 1/21/3
f 17/36/7 18/37/7 20/38/7 19/39/7
f 33/40/8 21/41/8 23/42/8 22/43/8
f 24/7/5 25/44/5 27/45/5 26/46/5
f 26/7/1 27/44/1 31/45/1 30/46/1
f 30/7/4 31/44/4 29/45/4 28/46/4
f 28/7/2 29/44/2 25/45/2 24/46/2
f 31/47/3 27/48/3 25/49/3 29/50/3
f 21/39/9 32/51/9 34/52/9 33/38/9
f 17/38/7 35/52/7 36/51/7 18/39/7
