# Blender 3.6.23
# www.blender.org
mtllib mcl_bamboo_flowerpot.mtl
o Pot
v 0.125000 -0.250000 0.125000
v 0.000000 0.500000 0.000000
v -0.000000 -0.250000 -0.000000
v 0.000000 0.500000 -0.500000
v 0.000000 -0.250000 -0.500000
v -0.125000 -0.250000 -0.125000
v -0.125000 -0.125000 -0.125000
v -0.187500 -0.500000 -0.187500
v -0.187500 -0.125000 -0.187500
v 0.125000 -0.125000 0.125000
v 0.187500 -0.500000 0.187500
v -0.125000 -0.250000 0.125000
v -0.125000 -0.125000 0.125000
v -0.187500 -0.500000 0.187500
v -0.187500 -0.125000 0.187500
v 0.125000 -0.250000 -0.125000
v 0.125000 -0.125000 -0.125000
v 0.187500 -0.500000 -0.187500
v 0.187500 -0.125000 -0.187500
v 0.187500 -0.125000 0.187500
v 0.062500 -0.250000 -0.062500
v 0.062500 0.500000 -0.062500
v 0.062500 -0.250000 0.062500
v 0.062500 0.500000 0.062500
v -0.062500 -0.250000 -0.062500
v -0.062500 0.500000 -0.062500
v -0.062500 -0.250000 0.062500
v -0.062500 0.500000 0.062500
vn 1.0000 -0.0000 -0.0000
vn -0.0000 -0.0000 -1.0000
vn -0.0000 -0.0000 1.0000
vn -0.0000 1.0000 -0.0000
vn -1.0000 -0.0000 -0.0000
vn -0.0000 -1.0000 -0.0000
vt 0.250000 1.000000
vt 0.250000 0.500000
vt 0.500000 0.500000
vt 0.500000 1.000000
vt 0.375000 0.062500
vt 0.375000 0.250000
vt 0.187500 0.250000
vt 0.187500 0.062500
vt 0.500000 0.562500
vt 0.500000 0.625000
vt 0.375000 0.625000
vt 0.375000 0.562500
vt 0.343750 0.281250
vt 0.218750 0.281250
vt 0.750000 0.062500
vt 0.750000 0.250000
vt 0.562500 0.250000
vt 0.562500 0.062500
vt 0.250000 0.562500
vt 0.250000 0.625000
vt 0.125000 0.625000
vt 0.125000 0.562500
vt 0.375000 0.437500
vt 0.187500 0.437500
vt 0.218750 0.406250
vt 0.343750 0.406250
vt 0.187500 0.062500
vt 0.187500 0.250000
vt 0.000000 0.250000
vt 0.000000 0.062500
vt 0.250000 0.625000
vt 0.250000 0.562500
vt 0.187500 0.437500
vt 0.187500 0.250000
vt 0.125000 0.562500
vt 0.125000 0.625000
vt -0.000000 0.625000
vt 0.000000 0.562500
vt 0.562500 0.437500
vt 0.593750 0.562500
vt 0.593750 0.875000
vt 0.531250 0.875000
vt 0.531250 0.562500
vt 0.968750 0.562500
vt 0.968750 0.875000
vt 0.906250 0.875000
vt 0.906250 0.562500
vt 0.843750 0.562500
vt 0.843750 0.875000
vt 0.781250 0.875000
vt 0.781250 0.562500
vt 0.718750 0.562500
vt 0.718750 0.875000
vt 0.656250 0.875000
vt 0.656250 0.562500
vt 0.718750 0.968750
vt 0.656250 0.968750
vt 0.656250 0.906250
vt 0.718750 0.906250
s 0
usemtl Pot
f 2/1/1 3/2/1 5/3/1 4/4/1
f 8/5/2 9/6/2 19/7/2 18/8/2
f 16/9/3 17/10/3 7/11/3 6/12/3
f 19/7/4 9/6/4 7/13/4 17/14/4
f 11/15/3 20/16/3 15/17/3 14/18/3
f 12/19/2 13/20/2 10/21/2 1/22/2
f 15/23/4 20/24/4 10/25/4 13/26/4
f 18/27/1 19/28/1 20/29/1 11/30/1
f 1/12/5 10/11/5 17/31/5 16/32/5
f 20/33/4 19/34/4 17/14/4 10/25/4
f 14/18/5 15/17/5 9/6/5 8/5/5
f 6/35/1 7/36/1 13/37/1 12/38/1
f 9/6/4 15/23/4 13/26/4 7/13/4
f 11/6/6 14/17/6 8/39/6 18/23/6
f 16/14/4 6/13/4 12/26/4 1/25/4
f 21/40/1 22/41/1 24/42/1 23/43/1
f 23/44/3 24/45/3 28/46/3 27/47/3
f 27/48/5 28/49/5 26/50/5 25/51/5
f 25/52/2 26/53/2 22/54/2 21/55/2
f 28/56/4 24/57/4 22/58/4 26/59/4
